<?xml version="1.0" encoding="utf-8"?>
<!-- Generator: Adobe Illustrator 23.0.1, SVG Export Plug-In . SVG Version: 6.00 Build 0)  -->
<svg version="1.1" id="Layer_1" xmlns="http://www.w3.org/2000/svg" xmlns:xlink="http://www.w3.org/1999/xlink" x="0px" y="0px"
	 viewBox="0 0 56.69 56.69" style="enable-background:new 0 0 56.69 56.69;" xml:space="preserve">
<style type="text/css">
	.st0{fill-rule:evenodd;clip-rule:evenodd;}
	.st1{fill:#1E32FA;}
	.st2{fill:#FAC832;}
	.st3{fill:#F04632;}
	.st4{fill:#FFFFFF;}
	.st5{fill:#1F33FA;}
	.st6{fill-rule:evenodd;clip-rule:evenodd;fill:#E6E6E6;}
	.st7{fill-rule:evenodd;clip-rule:evenodd;fill:#1E32FA;}
</style>
<g>
	<rect x="0.64" y="0.66" class="st1" width="55.36" height="27.68"/>
	<path class="st2" d="M18.52,27.56c0,5.41,4.39,9.8,9.8,9.8c5.41,0,9.8-4.39,9.8-9.8c0-5.41-4.39-9.8-9.8-9.8
		C22.91,17.76,18.52,22.15,18.52,27.56"/>
	<polygon class="st3" points="15.87,43.56 15.87,43.56 12.75,43.56 12.75,56.02 15.87,56.02 15.87,56.02 18.98,56.02 18.98,43.56 	
		"/>
	<polygon class="st3" points="40.77,43.56 40.77,43.56 37.66,43.56 37.66,56.02 40.77,56.02 40.77,56.02 43.89,56.02 43.89,43.56 	
		"/>
	<rect x="18.99" y="37.37" width="18.65" height="18.65"/>
</g>
</svg>
