<?xml version="1.0" encoding="utf-8"?>
<!-- Generator: Adobe Illustrator 23.0.1, SVG Export Plug-In . SVG Version: 6.00 Build 0)  -->
<svg version="1.1" id="Layer_1" xmlns="http://www.w3.org/2000/svg" xmlns:xlink="http://www.w3.org/1999/xlink" x="0px" y="0px"
	 viewBox="0 0 56.69 56.69" style="enable-background:new 0 0 56.69 56.69;" xml:space="preserve">
<style type="text/css">
	.st0{fill-rule:evenodd;clip-rule:evenodd;}
	.st1{fill:#1E32FA;}
	.st2{fill:#FAC832;}
	.st3{fill:#F04632;}
	.st4{fill:#FFFFFF;}
	.st5{fill:#1F33FA;}
	.st6{fill-rule:evenodd;clip-rule:evenodd;fill:#E6E6E6;}
	.st7{fill-rule:evenodd;clip-rule:evenodd;fill:#1E32FA;}
</style>
<g>
	<rect x="0.41" y="0.66" class="st1" width="55.59" height="27.8"/>
	<path class="st2" d="M4.73,41.19c0,3.52,2.85,6.36,6.36,6.36c3.51,0,6.36-2.85,6.36-6.36c0-3.52-2.85-6.36-6.36-6.36
		C7.58,34.83,4.73,37.68,4.73,41.19"/>
	<rect x="4.69" y="43.43" width="12.83" height="12.83"/>
	<polygon class="st3" points="19.65,47.7 19.65,47.7 17.51,47.7 17.51,56.26 19.65,56.26 19.65,56.26 21.79,56.26 21.79,47.7 	"/>
	<polygon class="st3" points="2.55,47.7 2.55,47.7 0.41,47.7 0.41,56.26 2.55,56.26 2.55,56.26 4.69,56.26 4.69,47.7 	"/>
	<path class="st2" d="M21.84,41.19c0,3.52,2.85,6.36,6.36,6.36c3.51,0,6.36-2.85,6.36-6.36c0-3.52-2.85-6.36-6.36-6.36
		C24.69,34.83,21.84,37.68,21.84,41.19"/>
	<rect x="21.79" y="43.43" width="12.83" height="12.83"/>
	<polygon class="st3" points="36.76,47.7 36.76,47.7 34.62,47.7 34.62,56.26 36.76,56.26 36.76,56.26 38.9,56.26 38.9,47.7 	"/>
	<polygon class="st3" points="53.86,47.7 53.86,47.7 51.72,47.7 51.72,56.26 53.86,56.26 53.86,56.26 56,56.26 56,47.7 	"/>
	<path class="st2" d="M38.94,41.19c0,3.52,2.85,6.36,6.36,6.36c3.51,0,6.36-2.85,6.36-6.36c0-3.52-2.85-6.36-6.36-6.36
		C41.79,34.83,38.94,37.68,38.94,41.19"/>
	<rect x="38.9" y="43.43" width="12.83" height="12.83"/>
	<g>
		<path class="st2" d="M14.1,11.61c0,4.04,3.28,7.32,7.32,7.32c4.04,0,7.32-3.28,7.32-7.32c0-4.04-3.28-7.32-7.32-7.32
			C17.37,4.29,14.1,7.57,14.1,11.61"/>
		<polygon class="st3" points="28.74,18.93 28.74,26.26 23.86,26.26 23.86,33.58 14.1,33.58 14.1,18.93 		"/>
		<polygon class="st2" points="37.24,13.83 37.24,13.83 35.54,12.13 28.74,18.93 30.44,20.63 30.44,20.63 32.14,22.33 38.94,15.53 
					"/>
	</g>
</g>
</svg>
