<?xml version="1.0" encoding="utf-8"?>
<!-- Generator: Adobe Illustrator 23.0.1, SVG Export Plug-In . SVG Version: 6.00 Build 0)  -->
<svg version="1.1" id="Layer_1" xmlns="http://www.w3.org/2000/svg" xmlns:xlink="http://www.w3.org/1999/xlink" x="0px" y="0px"
	 viewBox="0 0 56.69 56.69" style="enable-background:new 0 0 56.69 56.69;" xml:space="preserve">
<style type="text/css">
	.st0{fill-rule:evenodd;clip-rule:evenodd;}
	.st1{fill:#1E32FA;}
	.st2{fill:#FAC832;}
	.st3{fill:#F04632;}
	.st4{fill:#FFFFFF;}
	.st5{fill:#1F33FA;}
	.st6{fill-rule:evenodd;clip-rule:evenodd;fill:#E6E6E6;}
	.st7{fill-rule:evenodd;clip-rule:evenodd;fill:#1E32FA;}
	.st8{fill:#E7E7E7;}
</style>
<path class="st8" d="M44.65,46.54l0.19-0.01c0-19.21-15.83-34.79-35.37-34.79l0,0.01V0H0.17v46.54v9.31h55.85v-9.31H44.65z M21.57,24.43
	c2.3,0,4.16,1.86,4.16,4.16c0,2.3-1.86,4.16-4.16,4.16c-2.3,0-4.16-1.86-4.16-4.16C17.42,26.29,19.28,24.43,21.57,24.43z"/>
<path class="st8" d="M41.7,23.39c0-2.3,1.86-4.16,4.16-4.16c2.3,0,4.16,1.86,4.16,4.16c0,2.3-1.86,4.16-4.16,4.16
	C43.56,27.55,41.7,25.68,41.7,23.39"/>
<path class="st8" d="M23.98,5.6c0-2.3,1.86-4.16,4.16-4.16c2.3,0,4.16,1.86,4.16,4.16c0,2.3-1.86,4.16-4.16,4.16C25.84,9.76,23.98,7.9,23.98,5.6
	"/>
</svg>
