<?xml version="1.0" encoding="utf-8"?>
<!-- Generator: Adobe Illustrator 23.0.1, SVG Export Plug-In . SVG Version: 6.00 Build 0)  -->
<svg version="1.1" id="Layer_1" xmlns="http://www.w3.org/2000/svg" xmlns:xlink="http://www.w3.org/1999/xlink" x="0px" y="0px"
	 viewBox="0 0 56.69 56.69" style="enable-background:new 0 0 56.69 56.69;" xml:space="preserve">
<style type="text/css">
	.st0{fill-rule:evenodd;clip-rule:evenodd;}
	.st1{fill:#1E32FA;}
	.st2{fill:#FAC832;}
	.st3{fill:#F04632;}
	.st4{fill:#FFFFFF;}
	.st5{fill:#1F33FA;}
	.st6{fill-rule:evenodd;clip-rule:evenodd;fill:#E6E6E6;}
	.st7{fill-rule:evenodd;clip-rule:evenodd;fill:#1E32FA;}
	.st8{fill:#E7E7E7;}
</style>
<path class="st8" d="M46.3,28.29h-9.13l-9.13,9.13l-9.08-9.08l9.08-9.08v-9.13L18.91,1H9.78l-9.13,9.13v9.13l9.08,9.08l-9.08,9.08v9.13
	l9.13,9.13h9.13l9.13-9.13l9.13,9.13h9.13l9.13-9.13l0-9.13L46.3,28.29z M14.34,10.13c2.52,0,4.57,2.04,4.57,4.57
	c0,2.52-2.04,4.57-4.57,4.57s-4.57-2.04-4.57-4.57C9.78,12.18,11.82,10.13,14.34,10.13z M14.34,46.55c-2.52,0-4.57-2.04-4.57-4.57
	c0-2.52,2.04-4.57,4.57-4.57s4.57,2.04,4.57,4.57C18.91,44.51,16.86,46.55,14.34,46.55z M41.74,46.55c-2.52,0-4.57-2.04-4.57-4.57
	c0-2.52,2.04-4.57,4.57-4.57s4.57,2.04,4.57,4.57C46.3,44.51,44.26,46.55,41.74,46.55z"/>
</svg>
