<?xml version="1.0" encoding="utf-8"?>
<!-- Generator: Adobe Illustrator 23.0.1, SVG Export Plug-In . SVG Version: 6.00 Build 0)  -->
<svg version="1.1" id="Layer_1" xmlns="http://www.w3.org/2000/svg" xmlns:xlink="http://www.w3.org/1999/xlink" x="0px" y="0px"
	 viewBox="0 0 56.69 56.69" style="enable-background:new 0 0 56.69 56.69;" xml:space="preserve">
<style type="text/css">
	.st0{fill-rule:evenodd;clip-rule:evenodd;}
	.st1{fill:#1E32FA;}
	.st2{fill:#FAC832;}
	.st3{fill:#F04632;}
	.st4{fill:#FFFFFF;}
	.st5{fill:#1F33FA;}
	.st6{fill-rule:evenodd;clip-rule:evenodd;fill:#E6E6E6;}
	.st7{fill-rule:evenodd;clip-rule:evenodd;fill:#1E32FA;}
	.st8{fill:#E6E6E6;}
</style>
<g>
	<path class="st8" d="M9.78,55.69h9.13l9.13-9.13v-9.13l-9.13-9.13H9.78l-9.13,9.13v9.13L9.78,55.69z M14.34,37.42
		c2.52,0,4.57,2.04,4.57,4.57c0,2.52-2.04,4.57-4.57,4.57s-4.57-2.04-4.57-4.57C9.78,39.47,11.82,37.42,14.34,37.42z"/>
	<path class="st1" d="M28.04,19.26l0-9.13L18.91,1L9.78,1l-9.13,9.13l0,9.13l9.13,9.13l9.13,0L28.04,19.26z M9.78,14.7
		c0-2.52,2.04-4.57,4.57-4.57c2.52,0,4.57,2.04,4.57,4.57c0,2.52-2.04,4.57-4.57,4.57C11.82,19.26,9.78,17.22,9.78,14.7z"/>
	<path class="st3" d="M55.43,46.55l0-9.13l-9.13-9.13l-9.13,0l-9.13,9.13l0,9.13l9.13,9.13h9.13L55.43,46.55z M37.17,41.99
		c0-2.52,2.04-4.57,4.57-4.57c2.52,0,4.57,2.04,4.57,4.57c0,2.52-2.04,4.57-4.57,4.57C39.22,46.55,37.17,44.51,37.17,41.99z"/>
</g>
</svg>
